<svg id="Layer_1" data-name="Layer 1" xmlns="http://www.w3.org/2000/svg" viewBox="0 0 69.76 80.08"><title>brush</title><path d="M6.5,80a4.4,4.4,0,0,0,1,.2c1.7,0,2.5-1.9,2.9-2.8L31.5,29.2a2.92,2.92,0,0,0,.9-.2,3,3,0,0,0,1.7-1.8,3.19,3.19,0,0,0-.4-3,9,9,0,0,0,7.1-5.7C43.3,12.2,39,1.3,38.8.8a.9.9,0,0,0-.6-.6,1.1,1.1,0,0,0-.8,0c-.5.2-11.3,5.5-13.6,11.4a9.33,9.33,0,0,0,1.3,9,1.42,1.42,0,0,0-.6.2,3,3,0,0,0-1.7,1.8,3.1,3.1,0,0,0,.6,3.3L5.5,75.5C5.1,76.6,4.1,79.1,6.5,80ZM25.7,12.5c1.7-4.3,9-8.5,11.7-9.9,1,2.8,3.4,10.7,1.6,15.2a7.16,7.16,0,1,1-13.3-5.3Zm-1.1,11a1.34,1.34,0,0,1,.6-.7.9.9,0,0,1,.5-.1c.2,0,.3,0,.4.1l5.4,2.1a1.26,1.26,0,0,1,.7,1.6,1.34,1.34,0,0,1-.6.7,1.39,1.39,0,0,1-.9,0h0L25.3,25A1.19,1.19,0,0,1,24.6,23.5ZM7.3,76.2,25,27.1l4.4,1.7L8.5,76.6c-.8,1.8-1.1,1.6-1.3,1.5S6.7,78,7.3,76.2Z" transform="translate(-4.95 -0.12)"/><path d="M69,52a8.1,8.1,0,0,0,2.2-14.4l-.3-.2a6.17,6.17,0,0,1-2.6-5.1v-.4a8.16,8.16,0,0,0-13.1-6.5l-.3.2a5.94,5.94,0,0,1-5.6.9l-.4-.1A8.15,8.15,0,0,0,38.6,36.8l.1.4a6.17,6.17,0,0,1-.9,5.7l-.2.3a8.11,8.11,0,0,0-.7,8.6,8,8,0,0,0,7.4,4.4h.4a6.17,6.17,0,0,1,5.1,2.6l.2.3a8.06,8.06,0,0,0,6.6,3.4,5.7,5.7,0,0,0,1.3-.1,8.11,8.11,0,0,0,6.5-5.7A7.42,7.42,0,0,1,69,52ZM57.7,60.3a5.9,5.9,0,0,1-6-2.5l-.2-.3a8.19,8.19,0,0,0-6.6-3.4h-.6a6.15,6.15,0,0,1-5.1-9.8l.2-.3a8.08,8.08,0,0,0,1.1-7.5l-.1-.4a6.08,6.08,0,0,1,1.4-6.3,5.92,5.92,0,0,1,6.3-1.5l.4.1A8.41,8.41,0,0,0,56,27.2l.3-.2a6.17,6.17,0,0,1,9.9,4.9v.4A8.07,8.07,0,0,0,69.7,39l.3.2a6.15,6.15,0,0,1,2.6,6,5.92,5.92,0,0,1-4.2,4.9A8.79,8.79,0,0,0,62.6,56,6,6,0,0,1,57.7,60.3Z" transform="translate(-4.95 -0.12)"/></svg>