<svg height='100px' width='100px'  fill="#000000" xmlns="http://www.w3.org/2000/svg" xmlns:xlink="http://www.w3.org/1999/xlink" version="1.1" x="0px" y="0px" viewBox="0 0 64 64" style="enable-background:new 0 0 64 64;" xml:space="preserve"><path d="M56.5,61c-0.276,0-0.5-0.224-0.5-0.5V23h-2v7.5c0,0.276-0.224,0.5-0.5,0.5S53,30.776,53,30.5v-8c0-0.276,0.224-0.5,0.5-0.5  h3c0.276,0,0.5,0.224,0.5,0.5v38C57,60.776,56.776,61,56.5,61z"></path><path d="M56.5,61h-3c-0.276,0-0.5-0.224-0.5-0.5v-17c0-0.276,0.224-0.5,0.5-0.5s0.5,0.224,0.5,0.5V60h2.5c0.276,0,0.5,0.224,0.5,0.5  S56.776,61,56.5,61z"></path><path d="M56.5,23c-0.276,0-0.5-0.224-0.5-0.5V17h-2v5.5c0,0.276-0.224,0.5-0.5,0.5S53,22.776,53,22.5v-6c0-0.276,0.224-0.5,0.5-0.5  h3c0.276,0,0.5,0.224,0.5,0.5v6C57,22.776,56.776,23,56.5,23z"></path><path d="M53.5,17c-0.104,0-0.21-0.033-0.3-0.1c-0.082-0.061-2.001-1.523-2.182-3.684c-0.104-1.244,0.384-2.441,1.448-3.561  c2.11-2.218,1.545-6.04,1.539-6.078c-0.033-0.214,0.075-0.425,0.268-0.523c0.194-0.097,0.428-0.062,0.58,0.092  c0.187,0.187,4.575,4.629,4.371,9.121c-0.082,1.802-0.891,3.355-2.404,4.617c-0.212,0.175-0.527,0.148-0.704-0.064  s-0.148-0.528,0.063-0.705c1.289-1.074,1.978-2.384,2.046-3.894c0.129-2.837-1.897-5.779-3.142-7.305  c-0.015,1.489-0.327,3.782-1.893,5.428c-0.859,0.903-1.255,1.841-1.176,2.788c0.144,1.718,1.768,2.955,1.784,2.967  c0.221,0.166,0.266,0.479,0.101,0.7C53.802,16.931,53.651,17,53.5,17z"></path><path d="M47.5,54h-6c-0.276,0-0.5-0.224-0.5-0.5v-5c0-0.276,0.224-0.5,0.5-0.5h6c0.276,0,0.5,0.224,0.5,0.5v5  C48,53.776,47.776,54,47.5,54z M42,53h5v-4h-5V53z"></path><path d="M41.499,49c-0.242,0-0.455-0.177-0.493-0.424l-2.315-15c-0.022-0.144,0.02-0.291,0.114-0.402  C38.9,33.064,39.039,33,39.185,33H49.5c0.145,0,0.281,0.062,0.376,0.17c0.095,0.109,0.139,0.253,0.12,0.396l-2,15  c-0.037,0.274-0.297,0.465-0.562,0.43c-0.273-0.037-0.466-0.288-0.43-0.562L48.929,34h-9.161l2.227,14.424  c0.042,0.273-0.145,0.528-0.418,0.57C41.551,48.998,41.524,49,41.499,49z"></path><path d="M32,63c-6.525,0-12.773-2.012-18.068-5.818c-0.119-0.085-0.194-0.219-0.206-0.365c-0.012-0.146,0.041-0.291,0.145-0.394  l10.276-10.276c0.707-0.707,1.097-1.647,1.097-2.646s-0.39-1.939-1.097-2.646c-1.459-1.459-3.834-1.459-5.293,0L8.437,51.27  c-0.101,0.102-0.243,0.152-0.383,0.146c-0.142-0.008-0.274-0.077-0.362-0.188C3.314,45.699,1,39.05,1,32C1,14.907,14.906,1,32,1  c7.962,0,15.53,3.014,21.31,8.485c0.2,0.19,0.209,0.506,0.02,0.707c-0.19,0.2-0.506,0.209-0.707,0.02C47.029,4.917,39.705,2,32,2  C15.458,2,2,15.458,2,32c0,6.635,2.117,12.902,6.131,18.162l10.016-10.016c1.85-1.849,4.857-1.849,6.707,0  c0.896,0.896,1.39,2.086,1.39,3.354s-0.494,2.458-1.39,3.354l-9.856,9.856C20.017,60.173,25.882,62,32,62  c7.979,0,15.489-3.097,21.147-8.721c0.195-0.195,0.513-0.193,0.707,0.002c0.194,0.196,0.193,0.513-0.002,0.707  C48.006,59.799,40.245,63,32,63z"></path><path d="M56.5,50.669c-0.104,0-0.209-0.032-0.298-0.099c-0.222-0.165-0.269-0.478-0.104-0.7C59.959,44.673,62,38.494,62,32  c0-5.829-1.673-11.48-4.838-16.343c-0.15-0.231-0.085-0.542,0.146-0.692c0.23-0.15,0.541-0.085,0.691,0.146  c3.271,5.026,5,10.866,5,16.889c0,6.71-2.108,13.096-6.099,18.467C56.804,50.599,56.652,50.669,56.5,50.669z"></path><path d="M44.5,26c-2.481,0-4.5-2.019-4.5-4.5s2.019-4.5,4.5-4.5s4.5,2.019,4.5,4.5S46.981,26,44.5,26z M44.5,18  c-1.93,0-3.5,1.57-3.5,3.5s1.57,3.5,3.5,3.5s3.5-1.57,3.5-3.5S46.43,18,44.5,18z"></path><path d="M33.5,20c-2.481,0-4.5-2.019-4.5-4.5s2.019-4.5,4.5-4.5s4.5,2.019,4.5,4.5S35.981,20,33.5,20z M33.5,12  c-1.93,0-3.5,1.57-3.5,3.5s1.57,3.5,3.5,3.5s3.5-1.57,3.5-3.5S35.43,12,33.5,12z"></path><path d="M15.5,35c-2.481,0-4.5-2.019-4.5-4.5s2.019-4.5,4.5-4.5s4.5,2.019,4.5,4.5S17.981,35,15.5,35z M15.5,27  c-1.93,0-3.5,1.57-3.5,3.5s1.57,3.5,3.5,3.5s3.5-1.57,3.5-3.5S17.43,27,15.5,27z"></path><path d="M21.5,24c-2.481,0-4.5-2.019-4.5-4.5s2.019-4.5,4.5-4.5s4.5,2.019,4.5,4.5S23.981,24,21.5,24z M21.5,16  c-1.93,0-3.5,1.57-3.5,3.5s1.57,3.5,3.5,3.5s3.5-1.57,3.5-3.5S23.43,16,21.5,16z"></path><path d="M53.5,39c-0.276,0-0.5-0.224-0.5-0.5v-5c0-0.276,0.224-0.5,0.5-0.5s0.5,0.224,0.5,0.5v5C54,38.776,53.776,39,53.5,39z"></path></svg>