<svg height='100px' width='100px'  fill="#000000" xmlns="http://www.w3.org/2000/svg" xmlns:xlink="http://www.w3.org/1999/xlink" version="1.1" x="0px" y="0px" viewBox="0 0 64 64" style="enable-background:new 0 0 64 64;" xml:space="preserve"><path d="M46.358,57.125c-0.172,0-0.339-0.089-0.432-0.248c-0.139-0.238-0.059-0.544,0.179-0.684C54.676,51.185,60,41.915,60,32  C60,17.091,48.349,4.809,33.474,4.038C33.198,4.024,32.986,3.789,33,3.514c0.014-0.277,0.245-0.508,0.525-0.474  C48.932,3.838,61,16.559,61,32c0,10.269-5.514,19.87-14.39,25.057C46.53,57.104,46.443,57.125,46.358,57.125z"></path><path d="M17.642,57.124c-0.085,0-0.172-0.021-0.252-0.068C8.514,51.87,3,42.269,3,32C3,16.559,15.068,3.838,30.474,3.04  C30.742,3.005,30.985,3.236,31,3.514c0.014,0.275-0.198,0.511-0.474,0.524C15.651,4.809,4,17.091,4,32  c0,9.915,5.324,19.185,13.895,24.192c0.238,0.14,0.318,0.445,0.179,0.684C17.981,57.035,17.813,57.124,17.642,57.124z"></path><path d="M30.5,4h-25C5.224,4,5,3.776,5,3.5S5.224,3,5.5,3h25C30.776,3,31,3.224,31,3.5S30.776,4,30.5,4z"></path><path d="M58.5,4h-25C33.224,4,33,3.776,33,3.5S33.224,3,33.5,3h25C58.776,3,59,3.224,59,3.5S58.776,4,58.5,4z"></path><path d="M33.5,6h-3C30.224,6,30,5.776,30,5.5v-4C30,1.224,30.224,1,30.5,1h3C33.776,1,34,1.224,34,1.5v4C34,5.776,33.776,6,33.5,6z   M31,5h2V2h-2V5z"></path><path d="M60.5,6C59.122,6,58,4.879,58,3.5S59.122,1,60.5,1S63,2.121,63,3.5S61.878,6,60.5,6z M60.5,2C59.673,2,59,2.673,59,3.5  S59.673,5,60.5,5S62,4.327,62,3.5S61.327,2,60.5,2z"></path><path d="M3.5,6C2.122,6,1,4.879,1,3.5S2.122,1,3.5,1S6,2.121,6,3.5S4.878,6,3.5,6z M3.5,2C2.673,2,2,2.673,2,3.5S2.673,5,3.5,5  S5,4.327,5,3.5S4.327,2,3.5,2z"></path><path d="M45.5,63h-27c-1.93,0-3.5-1.57-3.5-3.5s1.57-3.5,3.5-3.5h6c0.276,0,0.5,0.224,0.5,0.5S24.776,57,24.5,57h-6  c-1.378,0-2.5,1.121-2.5,2.5s1.122,2.5,2.5,2.5h27c1.378,0,2.5-1.121,2.5-2.5S46.878,57,45.5,57h-8c-0.276,0-0.5-0.224-0.5-0.5  s0.224-0.5,0.5-0.5h8c1.93,0,3.5,1.57,3.5,3.5S47.43,63,45.5,63z"></path><path d="M44.5,57c-0.07,0-0.141-0.015-0.209-0.046c-0.251-0.116-0.36-0.413-0.245-0.664l5.309-11.503  c0.361-0.781,0.298-1.68-0.167-2.403L32.227,16h-0.454L14.812,42.384c-0.465,0.724-0.528,1.622-0.167,2.404l5.309,11.502  c0.116,0.251,0.006,0.548-0.245,0.664c-0.251,0.115-0.548,0.006-0.664-0.244l-5.309-11.503c-0.504-1.094-0.417-2.352,0.234-3.364  L31.08,15.229C31.171,15.087,31.33,15,31.5,15h1c0.17,0,0.329,0.087,0.42,0.229l17.108,26.613c0.651,1.013,0.739,2.271,0.234,3.363  L44.954,56.71C44.87,56.893,44.688,57,44.5,57z"></path><path d="M32,48c-2.206,0-4-1.794-4-4c0-1.433,0.78-2.764,2.012-3.472L31,15.48c0.01-0.269,0.231-0.48,0.5-0.48h1  c0.269,0,0.489,0.212,0.5,0.48l0.989,25.048C35.22,41.236,36,42.567,36,44C36,46.206,34.206,48,32,48z M31.98,16L31,40.856  c-0.007,0.186-0.117,0.353-0.285,0.433C29.673,41.783,29,42.848,29,44c0,1.654,1.346,3,3,3s3-1.346,3-3  c0-1.152-0.673-2.217-1.714-2.711c-0.168-0.08-0.278-0.247-0.285-0.433L31.98,16z"></path><path d="M32.5,57h-5c-0.276,0-0.5-0.224-0.5-0.5s0.224-0.5,0.5-0.5h5c0.276,0,0.5,0.224,0.5,0.5S32.776,57,32.5,57z"></path></svg>