<svg height='100px' width='100px'  fill="#000000" xmlns="http://www.w3.org/2000/svg" xmlns:xlink="http://www.w3.org/1999/xlink" version="1.1" x="0px" y="0px" viewBox="0 0 90 90" style="enable-background:new 0 0 90 90;" xml:space="preserve"><g><path d="M63.24023,15.92578c-6.61829,0-12.39496,3.62421-15.48523,8.98389h-3.65881V23.1958c0-3.85986-3.14014-7-7-7H15.88281   c-3.85986,0-7,3.14014-7,7v21.21338c0,3.85986,3.14014,7,7,7h21.21338c3.85986,0,7-3.14014,7-7v-1.71387h3.65869   c0.88495,1.53491,1.99054,2.92224,3.27441,4.12714v27.25177h30.08789V33.80273   C81.11719,23.94531,73.09766,15.92578,63.24023,15.92578z M42.09619,44.40918c0,2.75684-2.24316,5-5,5H15.88281   c-2.75684,0-5-2.24316-5-5V23.1958c0-2.75684,2.24316-5,5-5h21.21338c2.75684,0,5,2.24316,5,5V44.40918z M44.09619,40.69531   V26.90967h2.65308c-0.8905,2.12262-1.3855,4.45081-1.3855,6.89307c0,2.44208,0.49487,4.77008,1.38538,6.89258H44.09619z    M47.36377,33.80273c0-8.75439,7.12207-15.87695,15.87646-15.87695s15.87695,7.12256,15.87695,15.87695   S71.99463,49.6792,63.24023,49.6792S47.36377,42.55713,47.36377,33.80273z M53.0293,56.97266h12.04395v15.10156H53.0293V56.97266z    M79.11719,72.07422H67.07324V54.97266H53.0293v-6.51758c2.89795,2.02582,6.41479,3.22412,10.21094,3.22412   c6.90845,0,12.90186-3.94604,15.87695-9.69586V72.07422z"></path><path d="M63.24023,46.01367c6.7334,0,12.21143-5.47803,12.21143-12.21094c0-6.7334-5.47803-12.21143-12.21143-12.21143   c-6.73291,0-12.21094,5.47803-12.21094,12.21143C51.0293,40.53564,56.50732,46.01367,63.24023,46.01367z M63.24023,23.59131   c5.63037,0,10.21143,4.58105,10.21143,10.21143s-4.58105,10.21094-10.21143,10.21094S53.0293,39.43311,53.0293,33.80273   S57.60986,23.59131,63.24023,23.59131z"></path><path d="M63.24023,41.26025v-2c-3.00928,0-5.45752-2.44824-5.45752-5.45752c0-3.00977,2.44824-5.45801,5.45752-5.45801v-2   c-4.1123,0-7.45752,3.3457-7.45752,7.45801S59.12793,41.26025,63.24023,41.26025z"></path><rect x="55.19775" y="60.09814" width="6.48047" height="2"></rect><rect x="55.19775" y="63.52344" width="6.48047" height="2"></rect><rect x="55.19775" y="66.94922" width="6.48047" height="2"></rect></g></svg>