<svg height='100px' width='100px'  fill="#000000" xmlns="http://www.w3.org/2000/svg" xmlns:xlink="http://www.w3.org/1999/xlink" viewBox="0 0 100 100" version="1.1" x="0px" y="0px"><title>Pen Tool Copy 6</title><desc>Created with Sketch.</desc><g stroke="none" stroke-width="1" fill="none" fill-rule="evenodd"><path d="M49,56 C46.2385763,56 44,53.7614237 44,51 C44,48.2385763 46.2385763,46 49,46 C51.7614237,46 54,48.2385763 54,51 C54,53.7614237 51.7614237,56 49,56 Z M49,54 C50.6568542,54 52,52.6568542 52,51 C52,49.3431458 50.6568542,48 49,48 C47.3431458,48 46,49.3431458 46,51 C46,52.6568542 47.3431458,54 49,54 Z" fill="#000000" fill-rule="nonzero" transform="translate(49.000000, 51.000000) rotate(-315.000000) translate(-49.000000, -51.000000) "></path><path d="M47.4350288,65.4350288 C46.8827441,65.4350288 46.4350288,64.9873136 46.4350288,64.4350288 C46.4350288,63.8827441 46.8827441,63.4350288 47.4350288,63.4350288 L77.4350288,63.4350288 C77.9873136,63.4350288 78.4350288,63.8827441 78.4350288,64.4350288 C78.4350288,64.9873136 77.9873136,65.4350288 77.4350288,65.4350288 L47.4350288,65.4350288 Z" fill="#000000" fill-rule="nonzero" transform="translate(62.435029, 64.435029) rotate(-315.000000) translate(-62.435029, -64.435029) "></path><path d="M20.5649712,38.5649712 C20.0126864,38.5649712 19.5649712,38.1172559 19.5649712,37.5649712 C19.5649712,37.0126864 20.0126864,36.5649712 20.5649712,36.5649712 L50.5649712,36.5649712 C51.1172559,36.5649712 51.5649712,37.0126864 51.5649712,37.5649712 C51.5649712,38.1172559 51.1172559,38.5649712 50.5649712,38.5649712 L20.5649712,38.5649712 Z" fill="#000000" fill-rule="nonzero" transform="translate(35.564971, 37.564971) rotate(-315.000000) translate(-35.564971, -37.564971) "></path><path d="M73.8700577,79.8700577 L77.8700577,79.8700577 L77.8700577,75.8700577 L73.8700577,75.8700577 L73.8700577,79.8700577 Z M79.8700577,73.8700577 L79.8700577,81.8700577 L71.8700577,81.8700577 L71.8700577,73.8700577 L79.8700577,73.8700577 Z" fill="#000000" fill-rule="nonzero" transform="translate(75.870058, 77.870058) rotate(-315.000000) translate(-75.870058, -77.870058) "></path><path d="M20.1299423,26.1299423 L24.1299423,26.1299423 L24.1299423,22.1299423 L20.1299423,22.1299423 L20.1299423,26.1299423 Z M26.1299423,20.1299423 L26.1299423,28.1299423 L18.1299423,28.1299423 L18.1299423,20.1299423 L26.1299423,20.1299423 Z" fill="#000000" fill-rule="nonzero" transform="translate(22.129942, 24.129942) rotate(-315.000000) translate(-22.129942, -24.129942) "></path><path d="M21.8695153,79.340595 L32.9998656,75.5781964 L44.130216,79.340595 L32.9998656,55.2612444 L21.8695153,79.340595 Z M33.9075839,52.4583302 L46.9218978,80.6134392 C47.1536257,81.1147582 46.9350789,81.70901 46.43376,81.9407378 C46.2013249,82.0481777 45.9365306,82.0623592 45.6939498,81.9803595 L32.9998656,77.6893711 L20.3057815,81.9803595 C19.7825801,82.1572175 19.2150698,81.8764508 19.0382118,81.3532494 C18.956212,81.1106686 18.9703935,80.8458743 19.0778335,80.6134392 L32.0921474,52.4583302 C32.3238753,51.9570113 32.918127,51.7384645 33.419446,51.9701924 C33.6349434,52.0698031 33.8079731,52.2428328 33.9075839,52.4583302 Z" fill="#000000" fill-rule="nonzero" transform="translate(32.999986, 66.955481) rotate(-315.000000) translate(-32.999986, -66.955481) "></path><polygon fill="#000000" fill-rule="nonzero" points="50 11 50 47.4939033 48 47.4939033 48 9 90 9 90 52.0432244 52.5060967 52.0432244 52.5060967 50.0432244 88 50.0432244 88 11"></polygon><path d="M68,26 C68,25.4477153 68.4477153,25 69,25 C69.5522847,25 70,25.4477153 70,26 L70,36 C70,36.5522847 69.5522847,37 69,37 C68.4477153,37 68,36.5522847 68,36 L68,26 Z" fill="#000000" fill-rule="nonzero"></path><path d="M64,32 C63.4477153,32 63,31.5522847 63,31 C63,30.4477153 63.4477153,30 64,30 L74,30 C74.5522847,30 75,30.4477153 75,31 C75,31.5522847 74.5522847,32 74,32 L64,32 Z" fill="#000000" fill-rule="nonzero"></path><path d="M56,17 L56,44 L82,44 L82,17 L56,17 Z M54,15 L84,15 L84,46 L54,46 L54,15 Z" fill="#000000" fill-rule="nonzero"></path></g></svg>