<svg height='100px' width='100px'  fill="#000000" xmlns="http://www.w3.org/2000/svg" xmlns:xlink="http://www.w3.org/1999/xlink" version="1.1" x="0px" y="0px" viewBox="0 0 64 64" style="enable-background:new 0 0 64 64;" xml:space="preserve"><path d="M60.501,58H3.499C2.121,58,1,56.879,1,55.5V18.5C1,17.121,2.121,16,3.499,16h57.002C61.879,16,63,17.121,63,18.5V55.5  C63,56.879,61.879,58,60.501,58z M3.499,17C2.673,17,2,17.673,2,18.5V55.5C2,56.327,2.673,57,3.499,57h57.002  C61.327,57,62,56.327,62,55.5V18.5c0-0.827-0.673-1.5-1.499-1.5H3.499z"></path><path d="M44.5,49C37.056,49,31,42.944,31,35.5S37.056,22,44.5,22S58,28.056,58,35.5S51.944,49,44.5,49z M44.5,23  C37.607,23,32,28.607,32,35.5S37.607,48,44.5,48S57,42.393,57,35.5S51.393,23,44.5,23z"></path><path d="M44.5,45c-5.238,0-9.5-4.262-9.5-9.5s4.262-9.5,9.5-9.5s9.5,4.262,9.5,9.5S49.738,45,44.5,45z M44.5,27  c-4.687,0-8.5,3.813-8.5,8.5s3.813,8.5,8.5,8.5s8.5-3.813,8.5-8.5S49.187,27,44.5,27z"></path><path d="M54.5,11c-0.183,0-0.359-0.101-0.447-0.276L52.191,7H36.809l-1.861,3.724c-0.124,0.248-0.423,0.346-0.671,0.224  c-0.247-0.124-0.347-0.424-0.224-0.671l2-4C36.138,6.107,36.311,6,36.5,6h16c0.189,0,0.362,0.107,0.447,0.276l2,4  c0.123,0.247,0.023,0.547-0.224,0.671C54.651,10.983,54.575,11,54.5,11z"></path><path d="M32.5,30h-10c-0.276,0-0.5-0.224-0.5-0.5s0.224-0.5,0.5-0.5h10c0.276,0,0.5,0.224,0.5,0.5S32.776,30,32.5,30z"></path><path d="M9.5,30h-8C1.224,30,1,29.776,1,29.5S1.224,29,1.5,29h8c0.276,0,0.5,0.224,0.5,0.5S9.776,30,9.5,30z"></path><path d="M62.5,30h-6c-0.276,0-0.5-0.224-0.5-0.5s0.224-0.5,0.5-0.5h6c0.276,0,0.5,0.224,0.5,0.5S62.776,30,62.5,30z"></path><path d="M17.5,30h-5c-0.276,0-0.5-0.224-0.5-0.5s0.224-0.5,0.5-0.5h5c0.276,0,0.5,0.224,0.5,0.5S17.776,30,17.5,30z"></path><path d="M17.5,17c-0.276,0-0.5-0.224-0.5-0.5v-2.502C17,13.447,16.553,13,16.003,13H9.997C9.447,13,9,13.447,9,13.998V16.5  C9,16.776,8.776,17,8.5,17S8,16.776,8,16.5v-2.502C8,12.896,8.896,12,9.997,12h6.006C17.104,12,18,12.896,18,13.998V16.5  C18,16.776,17.776,17,17.5,17z"></path><path d="M13,44c-1.654,0-3-1.346-3-3s1.346-3,3-3s3,1.346,3,3S14.654,44,13,44z M13,39c-1.103,0-2,0.897-2,2s0.897,2,2,2  s2-0.897,2-2S14.103,39,13,39z"></path><path d="M62.5,52.775h-61c-0.276,0-0.5-0.224-0.5-0.5s0.224-0.5,0.5-0.5h61c0.276,0,0.5,0.224,0.5,0.5S62.776,52.775,62.5,52.775z"></path><path d="M57.5,17c-0.276,0-0.5-0.224-0.5-0.5v-4.498C57,11.45,56.55,11,55.997,11H33.003C32.45,11,32,11.45,32,12.002V16.5  c0,0.276-0.224,0.5-0.5,0.5S31,16.776,31,16.5v-4.498C31,10.898,31.898,10,33.003,10h22.994C57.102,10,58,10.898,58,12.002V16.5  C58,16.776,57.776,17,57.5,17z"></path></svg>