<?xml version="1.0" encoding="utf-8"?>
<!-- Generator: Adobe Illustrator 23.0.2, SVG Export Plug-In . SVG Version: 6.00 Build 0)  -->
<svg version="1.1" id="Layer_1" xmlns="http://www.w3.org/2000/svg" xmlns:xlink="http://www.w3.org/1999/xlink" x="0px" y="0px"
	 viewBox="0 0 80 80" style="enable-background:new 0 0 80 80;" xml:space="preserve">
<title>video</title>
<path d="M7.8,18.4h8.5c0.6,0,1-0.4,1-1V8.9c0-0.6-0.4-1-1-1H7.8c-0.6,0-1,0.4-1,1v8.5C6.8,17.9,7.3,18.4,7.8,18.4z M8.8,9.9h6.5v6.5
	H8.8V9.9z"/>
<path d="M74.7,1H5.6c-3,0-5.4,2.4-5.4,5.4v59.8c0,3,2.4,5.4,5.4,5.4h15.1V80c0,0.6,0.4,1,1,1h36.5c0.6,0,1-0.4,1-1v-8.3h15.5
	c3,0,5.4-2.4,5.4-5.4V6.4C80.2,3.4,77.7,1,74.7,1z M2.2,23.7h17c-1.1,2.7-1.7,5.6-1.7,8.6c0,3.3,0.7,6.5,2,9.4H2.2V23.7z M19.5,32.3
	c0-11.3,9.2-20.5,20.5-20.5S60.5,21,60.5,32.3S51.3,52.8,40,52.8S19.5,43.6,19.5,32.3z M62.5,32.3c0-3.1-0.6-6-1.7-8.6h17.4v18H60.4
	C61.7,38.8,62.5,35.7,62.5,32.3z M5.6,3h69.2c1.9,0,3.4,1.5,3.4,3.4v15.2H59.8C56,14.6,48.5,9.8,40,9.8s-16,4.8-19.8,11.9h-18V6.4
	C2.2,4.5,3.7,3,5.6,3z M22.7,79V59.9h34.5V79H22.7z M74.7,69.7H59.2v-9.8h4.7c0.6,0,1-0.4,1-1s-0.4-1-1-1H16.4c-0.6,0-1,0.4-1,1
	s0.4,1,1,1h4.4v9.8H5.6c-1.9,0-3.4-1.5-3.4-3.4V43.7h18.4c3.9,6.7,11.1,11.1,19.4,11.1s15.5-4.5,19.4-11.1h18.8v22.6
	C78.2,68.1,76.6,69.7,74.7,69.7z"/>
<path d="M40,48.6c9,0,16.3-7.3,16.3-16.3S49,16,40,16s-16.3,7.3-16.3,16.3S31,48.6,40,48.6z M40,18c7.9,0,14.3,6.4,14.3,14.3
	S47.9,46.6,40,46.6s-14.3-6.4-14.3-14.3S32.1,18,40,18z"/>
<path d="M40.1,24.3c4.3,0,7.9,3.5,7.9,7.9c0,0.6,0.4,1,1,1s1-0.4,1-1c0-5.4-4.4-9.9-9.9-9.9c-0.6,0-1,0.4-1,1S39.6,24.3,40.1,24.3z"
	/>
<path d="M68,19.1c3.3,0,5.9-2.7,5.9-5.9S71.2,7.2,68,7.2S62,9.8,62,13.1S64.7,19.1,68,19.1z M68,9.2c2.2,0,3.9,1.8,3.9,3.9
	c0,2.2-1.8,3.9-3.9,3.9S64,15.3,64,13.1S65.8,9.2,68,9.2z"/>
<path d="M49.6,63.5c-0.6,0-1,0.4-1,1c0,4.7-3.9,8.6-8.6,8.6s-8.6-3.9-8.6-8.6c0-0.6-0.4-1-1-1s-1,0.4-1,1c0,5.8,4.8,10.6,10.6,10.6
	s10.6-4.8,10.6-10.6C50.6,63.9,50.1,63.5,49.6,63.5z"/>
</svg>
