<svg height='100px' width='100px'  fill="#000000" xmlns="http://www.w3.org/2000/svg" xmlns:xlink="http://www.w3.org/1999/xlink" version="1.1" x="0px" y="0px" viewBox="0 0 64 64" style="enable-background:new 0 0 64 64;" xml:space="preserve"><path d="M6.5,60C6.224,60,6,59.776,6,59.5V26.557C6,24.596,7.572,23,9.505,23H24c0.276,0,0.5,0.224,0.5,0.5S24.276,24,24,24H9.505  C8.124,24,7,25.146,7,26.557V59.5C7,59.776,6.776,60,6.5,60z"></path><path d="M57.5,60c-0.276,0-0.5-0.224-0.5-0.5V26.557C57,25.146,55.876,24,54.495,24H40c-0.276,0-0.5-0.224-0.5-0.5S39.724,23,40,23  h14.495C56.428,23,58,24.596,58,26.557V59.5C58,59.776,57.776,60,57.5,60z"></path><path d="M54.5,32c-0.276,0-0.5-0.224-0.5-0.5V27H41.5c-0.276,0-0.5-0.224-0.5-0.5s0.224-0.5,0.5-0.5h13c0.276,0,0.5,0.224,0.5,0.5v5  C55,31.776,54.776,32,54.5,32z"></path><path d="M54.5,57h-45C9.224,57,9,56.776,9,56.5v-30C9,26.224,9.224,26,9.5,26h13c0.276,0,0.5,0.224,0.5,0.5S22.776,27,22.5,27H10v29  h44V45.5c0-0.276,0.224-0.5,0.5-0.5s0.5,0.224,0.5,0.5v11C55,56.776,54.776,57,54.5,57z"></path><path d="M54.5,41c-0.276,0-0.5-0.224-0.5-0.5v-5c0-0.276,0.224-0.5,0.5-0.5s0.5,0.224,0.5,0.5v5C55,40.776,54.776,41,54.5,41z"></path><path d="M59.502,63H4.499C2.569,63,1,61.431,1,59.502c0-0.276,0.224-0.5,0.5-0.5L26.5,59v1H2.05c0.232,1.14,1.242,2,2.448,2h55.003  c1.206,0,2.216-0.859,2.448-1.998L37.5,60c-0.276,0-0.5-0.224-0.5-0.5s0.224-0.5,0.5-0.5h25c0.276,0,0.5,0.224,0.5,0.5  C63,61.43,61.431,63,59.502,63z"></path><path d="M36.5,61h-9c-0.827,0-1.5-0.673-1.5-1.5c0-0.276,0.224-0.5,0.5-0.5s0.5,0.224,0.5,0.5c0,0.275,0.224,0.5,0.5,0.5h9  c0.275,0,0.5-0.225,0.5-0.5c0-0.276,0.224-0.5,0.5-0.5s0.5,0.224,0.5,0.5C38,60.327,37.327,61,36.5,61z"></path><path d="M43.5,31c-0.053,0-0.106-0.009-0.158-0.025l-9-3c-0.262-0.088-0.403-0.371-0.316-0.633c0.088-0.262,0.372-0.401,0.633-0.316  l7.854,2.618L32.191,9h-0.382L21.487,29.644l7.855-2.618c0.263-0.088,0.545,0.055,0.632,0.316s-0.054,0.545-0.316,0.633l-9,3  c-0.192,0.061-0.404,0.007-0.536-0.147c-0.132-0.152-0.16-0.37-0.069-0.551l11-22C31.138,8.107,31.311,8,31.5,8h1  c0.189,0,0.362,0.107,0.447,0.276l11,22c0.091,0.181,0.062,0.398-0.069,0.551C43.781,30.939,43.643,31,43.5,31z"></path><path d="M15.5,10C14.673,10,14,9.327,14,8.5S14.673,7,15.5,7S17,7.673,17,8.5S16.327,10,15.5,10z M15.5,8C15.224,8,15,8.225,15,8.5  S15.224,9,15.5,9S16,8.775,16,8.5S15.776,8,15.5,8z"></path><path d="M23,15c-1.103,0-2-0.897-2-2s0.897-2,2-2s2,0.897,2,2S24.103,15,23,15z M23,12c-0.551,0-1,0.448-1,1s0.449,1,1,1  s1-0.448,1-1S23.551,12,23,12z"></path><path d="M41,15c-1.103,0-2-0.897-2-2s0.897-2,2-2s2,0.897,2,2S42.103,15,41,15z M41,12c-0.552,0-1,0.448-1,1s0.448,1,1,1  s1-0.448,1-1S41.552,12,41,12z"></path><path d="M25.5,4C24.673,4,24,3.327,24,2.5S24.673,1,25.5,1S27,1.673,27,2.5S26.327,4,25.5,4z M25.5,2C25.224,2,25,2.225,25,2.5  S25.224,3,25.5,3S26,2.775,26,2.5S25.776,2,25.5,2z"></path><path d="M38.5,4C37.673,4,37,3.327,37,2.5S37.673,1,38.5,1S40,1.673,40,2.5S39.327,4,38.5,4z M38.5,2C38.225,2,38,2.225,38,2.5  S38.225,3,38.5,3S39,2.775,39,2.5S38.775,2,38.5,2z"></path><path d="M49.5,21c-0.827,0-1.5-0.673-1.5-1.5s0.673-1.5,1.5-1.5s1.5,0.673,1.5,1.5S50.327,21,49.5,21z M49.5,19  c-0.275,0-0.5,0.225-0.5,0.5s0.225,0.5,0.5,0.5s0.5-0.225,0.5-0.5S49.775,19,49.5,19z"></path><path d="M48.5,10C47.673,10,47,9.327,47,8.5S47.673,7,48.5,7S50,7.673,50,8.5S49.327,10,48.5,10z M48.5,8C48.225,8,48,8.225,48,8.5  S48.225,9,48.5,9S49,8.775,49,8.5S48.775,8,48.5,8z"></path><path d="M14.5,21c-0.827,0-1.5-0.673-1.5-1.5s0.673-1.5,1.5-1.5s1.5,0.673,1.5,1.5S15.327,21,14.5,21z M14.5,19  c-0.276,0-0.5,0.225-0.5,0.5s0.224,0.5,0.5,0.5s0.5-0.225,0.5-0.5S14.776,19,14.5,19z"></path><path d="M32.5,31h-1c-0.167,0-0.323-0.084-0.416-0.223l-2-3c-0.065-0.097-0.093-0.214-0.081-0.33l2-19C31.029,8.193,31.244,8,31.5,8  h1c0.256,0,0.471,0.193,0.497,0.447l2,19c0.013,0.116-0.017,0.233-0.081,0.33l-2,3C32.823,30.916,32.667,31,32.5,31z M31.768,30  h0.465l1.751-2.627L32.05,9h-0.1l-1.934,18.373L31.768,30z"></path><path d="M28.5,43c-0.276,0-0.5-0.224-0.5-0.5v-11c0-0.276,0.224-0.5,0.5-0.5s0.5,0.224,0.5,0.5v11C29,42.776,28.776,43,28.5,43z"></path><path d="M35.5,43c-0.276,0-0.5-0.224-0.5-0.5v-11c0-0.276,0.224-0.5,0.5-0.5s0.5,0.224,0.5,0.5v11C36,42.776,35.776,43,35.5,43z"></path><path d="M43.5,38c-0.276,0-0.5-0.224-0.5-0.5v-4c0-0.276,0.224-0.5,0.5-0.5s0.5,0.224,0.5,0.5v4C44,37.776,43.776,38,43.5,38z"></path><path d="M35.5,49c-0.276,0-0.5-0.224-0.5-0.5v-3c0-0.276,0.224-0.5,0.5-0.5s0.5,0.224,0.5,0.5v3C36,48.776,35.776,49,35.5,49z"></path><path d="M43.5,43c-0.276,0-0.5-0.224-0.5-0.5v-2c0-0.276,0.224-0.5,0.5-0.5s0.5,0.224,0.5,0.5v2C44,42.776,43.776,43,43.5,43z"></path><path d="M20.5,43c-0.276,0-0.5-0.224-0.5-0.5v-2c0-0.276,0.224-0.5,0.5-0.5s0.5,0.224,0.5,0.5v2C21,42.776,20.776,43,20.5,43z"></path><path d="M28.5,49c-0.276,0-0.5-0.224-0.5-0.5v-3c0-0.276,0.224-0.5,0.5-0.5s0.5,0.224,0.5,0.5v3C29,48.776,28.776,49,28.5,49z"></path><path d="M20.5,38c-0.276,0-0.5-0.224-0.5-0.5v-4c0-0.276,0.224-0.5,0.5-0.5s0.5,0.224,0.5,0.5v4C21,37.776,20.776,38,20.5,38z"></path></svg>