<svg id="Layer_1" data-name="Layer 1" xmlns="http://www.w3.org/2000/svg" viewBox="0 0 80 80"><title>video</title><path d="M70.89,10A19.08,19.08,0,0,0,54.78,39.33H44.21a14.34,14.34,0,0,0,1.13-5.61A14.5,14.5,0,1,0,22,45.17v7h-2.8a4.59,4.59,0,0,0-4.47-3.63H11a1,1,0,0,0-1,1V83.27a1,1,0,0,0,1,1h3.72a4.59,4.59,0,0,0,4.47-3.62H22V89a1,1,0,0,0,1,1H82.72a1,1,0,0,0,1-1V43.42a1,1,0,0,0,0-.17A19.08,19.08,0,0,0,70.89,10ZM18.35,33.72a12.5,12.5,0,1,1,12.5,12.49A12.52,12.52,0,0,1,18.35,33.72Zm-1.06,46a2.57,2.57,0,0,1-2.57,2.57H12V50.52h2.72a2.57,2.57,0,0,1,2.57,2.57Zm2-1V54.15H22v24.5ZM81.72,88H24V46.48a14.27,14.27,0,0,0,6.85,1.73,14.48,14.48,0,0,0,12.31-6.88H56.23a19.05,19.05,0,0,0,25.49,3.5ZM70.89,46.21A17.11,17.11,0,1,1,88,29.11,17.12,17.12,0,0,1,70.89,46.21Z" transform="translate(-10 -10)"/><path d="M70.89,14.81a14.3,14.3,0,1,0,14.3,14.3A14.31,14.31,0,0,0,70.89,14.81Zm0,26.59a12.3,12.3,0,1,1,12.3-12.29A12.31,12.31,0,0,1,70.89,41.4Z" transform="translate(-10 -10)"/><path d="M30.85,43.54A9.82,9.82,0,1,0,21,33.72,9.84,9.84,0,0,0,30.85,43.54Zm0-17.64A7.82,7.82,0,1,1,23,33.72,7.82,7.82,0,0,1,30.85,25.9Z" transform="translate(-10 -10)"/><path d="M73,61.5H31.79a1,1,0,0,0-1,1V76.17a1,1,0,0,0,1,1H73a1,1,0,0,0,1-1V62.5A1,1,0,0,0,73,61.5ZM72,75.17H32.79V63.5H72Z" transform="translate(-10 -10)"/><path d="M65.32,50.33a3.86,3.86,0,1,0,0,7.72h4.86a3.86,3.86,0,0,0,0-7.72ZM72,54.19a1.86,1.86,0,0,1-1.86,1.86H65.32a1.86,1.86,0,1,1,0-3.72h4.86A1.86,1.86,0,0,1,72,54.19Z" transform="translate(-10 -10)"/><path d="M54.1,58.05a3.86,3.86,0,1,0-3.86-3.86A3.86,3.86,0,0,0,54.1,58.05Zm0-5.72a1.86,1.86,0,1,1-1.86,1.86A1.87,1.87,0,0,1,54.1,52.33Z" transform="translate(-10 -10)"/></svg>